<svg xmlns="http://www.w3.org/2000/svg" xmlns:xlink="http://www.w3.org/1999/xlink" version="1.1" width="256" height="256" viewBox="0 0 256 256" xml:space="preserve">
<desc>Created with Fabric.js 1.7.22</desc>
<defs>
</defs>
<g transform="translate(128 128) scale(0.72 0.72)" style="">
	<g style="stroke: none; stroke-width: 0; stroke-dasharray: none; stroke-linecap: butt; stroke-linejoin: miter; stroke-miterlimit: 10; fill: none; fill-rule: nonzero; opacity: 1;" transform="translate(-175.05 -175.05000000000004) scale(3.89 3.89)" >
	<path d="M 78.257 89.576 H 7.542 C 3.383 89.576 0 86.193 0 82.035 V 35.563 c 0 -4.158 3.383 -7.541 7.542 -7.541 h 70.715 c 4.158 0 7.541 3.383 7.541 7.541 v 14.618 c 0 0.553 -0.447 1 -1 1 s -1 -0.447 -1 -1 V 35.563 c 0 -3.055 -2.485 -5.541 -5.541 -5.541 H 7.542 C 4.486 30.022 2 32.508 2 35.563 v 46.472 c 0 3.056 2.486 5.541 5.542 5.541 h 70.715 c 3.056 0 5.541 -2.485 5.541 -5.541 V 67.418 c 0 -0.553 0.447 -1 1 -1 s 1 0.447 1 1 v 14.617 C 85.798 86.193 82.415 89.576 78.257 89.576 z" style="stroke: none; stroke-width: 1; stroke-dasharray: none; stroke-linecap: butt; stroke-linejoin: miter; stroke-miterlimit: 10; fill: rgb(0,0,0); fill-rule: nonzero; opacity: 1;" transform=" matrix(1 0 0 1 0 0) " stroke-linecap="round" />
	<path d="M 86.32 68.418 H 64.237 c -5.304 0 -9.618 -4.315 -9.618 -9.619 s 4.314 -9.618 9.618 -9.618 H 86.32 c 2.029 0 3.68 1.65 3.68 3.68 v 11.878 C 90 66.768 88.35 68.418 86.32 68.418 z M 64.237 51.181 c -4.2 0 -7.618 3.418 -7.618 7.618 c 0 4.201 3.418 7.619 7.618 7.619 H 86.32 c 0.926 0 1.68 -0.754 1.68 -1.68 V 52.86 c 0 -0.926 -0.754 -1.68 -1.68 -1.68 H 64.237 z" style="stroke: none; stroke-width: 1; stroke-dasharray: none; stroke-linecap: butt; stroke-linejoin: miter; stroke-miterlimit: 10; fill: rgb(0,0,0); fill-rule: nonzero; opacity: 1;" transform=" matrix(1 0 0 1 0 0) " stroke-linecap="round" />
	<path d="M 12.952 62.892 c -0.552 0 -1 -0.447 -1 -1 v -32.87 c 0 -0.552 0.448 -1 1 -1 s 1 0.448 1 1 v 32.87 C 13.952 62.444 13.504 62.892 12.952 62.892 z" style="stroke: none; stroke-width: 1; stroke-dasharray: none; stroke-linecap: butt; stroke-linejoin: miter; stroke-miterlimit: 10; fill: rgb(0,0,0); fill-rule: nonzero; opacity: 1;" transform=" matrix(1 0 0 1 0 0) " stroke-linecap="round" />
	<path d="M 44.797 88.45 c -0.552 0 -1 -0.447 -1 -1 V 70.984 c 0 -0.553 0.448 -1 1 -1 s 1 0.447 1 1 V 87.45 C 45.797 88.003 45.349 88.45 44.797 88.45 z" style="stroke: none; stroke-width: 1; stroke-dasharray: none; stroke-linecap: butt; stroke-linejoin: miter; stroke-miterlimit: 10; fill: rgb(0,0,0); fill-rule: nonzero; opacity: 1;" transform=" matrix(1 0 0 1 0 0) " stroke-linecap="round" />
	<path d="M 12.952 70.493 c -2.647 0 -4.8 -2.153 -4.8 -4.801 s 2.153 -4.801 4.8 -4.801 s 4.801 2.153 4.801 4.801 S 15.599 70.493 12.952 70.493 z M 12.952 62.892 c -1.544 0 -2.8 1.257 -2.8 2.801 s 1.256 2.801 2.8 2.801 c 1.544 0 2.801 -1.257 2.801 -2.801 S 14.496 62.892 12.952 62.892 z" style="stroke: none; stroke-width: 1; stroke-dasharray: none; stroke-linecap: butt; stroke-linejoin: miter; stroke-miterlimit: 10; fill: rgb(0,0,0); fill-rule: nonzero; opacity: 1;" transform=" matrix(1 0 0 1 0 0) " stroke-linecap="round" />
	<path d="M 29.004 89.576 c -0.552 0 -1 -0.447 -1 -1 V 52.522 c 0 -0.553 0.448 -1 1 -1 s 1 0.447 1 1 v 36.054 C 30.004 89.129 29.556 89.576 29.004 89.576 z" style="stroke: none; stroke-width: 1; stroke-dasharray: none; stroke-linecap: butt; stroke-linejoin: miter; stroke-miterlimit: 10; fill: rgb(0,0,0); fill-rule: nonzero; opacity: 1;" transform=" matrix(1 0 0 1 0 0) " stroke-linecap="round" />
	<path d="M 29.004 53.522 c -2.647 0 -4.801 -2.153 -4.801 -4.801 c 0 -2.646 2.154 -4.8 4.801 -4.8 s 4.8 2.154 4.8 4.8 C 33.804 51.369 31.651 53.522 29.004 53.522 z M 29.004 45.921 c -1.544 0 -2.801 1.256 -2.801 2.8 s 1.256 2.801 2.801 2.801 c 1.544 0 2.8 -1.257 2.8 -2.801 S 30.548 45.921 29.004 45.921 z" style="stroke: none; stroke-width: 1; stroke-dasharray: none; stroke-linecap: butt; stroke-linejoin: miter; stroke-miterlimit: 10; fill: rgb(0,0,0); fill-rule: nonzero; opacity: 1;" transform=" matrix(1 0 0 1 0 0) " stroke-linecap="round" />
	<path d="M 44.797 71.984 c -2.647 0 -4.8 -2.153 -4.8 -4.801 c 0 -2.646 2.153 -4.8 4.8 -4.8 c 2.647 0 4.801 2.153 4.801 4.8 C 49.598 69.831 47.444 71.984 44.797 71.984 z M 44.797 64.384 c -1.544 0 -2.8 1.256 -2.8 2.8 s 1.256 2.801 2.8 2.801 s 2.801 -1.257 2.801 -2.801 S 46.341 64.384 44.797 64.384 z" style="stroke: none; stroke-width: 1; stroke-dasharray: none; stroke-linecap: butt; stroke-linejoin: miter; stroke-miterlimit: 10; fill: rgb(0,0,0); fill-rule: nonzero; opacity: 1;" transform=" matrix(1 0 0 1 0 0) " stroke-linecap="round" />
	<path d="M 12.952 89.576 c -0.552 0 -1 -0.447 -1 -1 v -6.726 c 0 -1.61 -1.311 -2.921 -2.921 -2.921 l -7.963 0.194 c -0.576 -0.016 -1.011 -0.423 -1.024 -0.976 c -0.014 -0.552 0.423 -1.011 0.975 -1.024 l 7.988 -0.194 c 2.738 0 4.945 2.207 4.945 4.921 v 6.726 C 13.952 89.129 13.504 89.576 12.952 89.576 z" style="stroke: none; stroke-width: 1; stroke-dasharray: none; stroke-linecap: butt; stroke-linejoin: miter; stroke-miterlimit: 10; fill: rgb(0,0,0); fill-rule: nonzero; opacity: 1;" transform=" matrix(1 0 0 1 0 0) " stroke-linecap="round" />
	<path d="M 51.818 38.731 c -0.553 0 -1 -0.448 -1 -1 v -8.709 c 0 -0.552 0.447 -1 1 -1 s 1 0.448 1 1 v 8.709 C 52.818 38.284 52.371 38.731 51.818 38.731 z" style="stroke: none; stroke-width: 1; stroke-dasharray: none; stroke-linecap: butt; stroke-linejoin: miter; stroke-miterlimit: 10; fill: rgb(0,0,0); fill-rule: nonzero; opacity: 1;" transform=" matrix(1 0 0 1 0 0) " stroke-linecap="round" />
	<path d="M 51.818 46.332 c -2.647 0 -4.801 -2.153 -4.801 -4.8 s 2.153 -4.8 4.801 -4.8 s 4.801 2.153 4.801 4.8 S 54.466 46.332 51.818 46.332 z M 51.818 38.731 c -1.544 0 -2.801 1.256 -2.801 2.8 c 0 1.544 1.257 2.801 2.801 2.801 s 2.801 -1.256 2.801 -2.801 C 54.619 39.988 53.362 38.731 51.818 38.731 z" style="stroke: none; stroke-width: 1; stroke-dasharray: none; stroke-linecap: butt; stroke-linejoin: miter; stroke-miterlimit: 10; fill: rgb(0,0,0); fill-rule: nonzero; opacity: 1;" transform=" matrix(1 0 0 1 0 0) " stroke-linecap="round" />
	<path d="M 67.807 63.6 c -2.647 0 -4.801 -2.153 -4.801 -4.801 c 0 -2.646 2.153 -4.8 4.801 -4.8 s 4.801 2.153 4.801 4.8 C 72.607 61.446 70.454 63.6 67.807 63.6 z M 67.807 55.999 c -1.544 0 -2.801 1.256 -2.801 2.8 s 1.257 2.801 2.801 2.801 s 2.801 -1.257 2.801 -2.801 S 69.351 55.999 67.807 55.999 z" style="stroke: none; stroke-width: 1; stroke-dasharray: none; stroke-linecap: butt; stroke-linejoin: miter; stroke-miterlimit: 10; fill: rgb(0,0,0); fill-rule: nonzero; opacity: 1;" transform=" matrix(1 0 0 1 0 0) " stroke-linecap="round" />
	<path d="M 23.742 30.022 c -0.552 0 -1 -0.448 -1 -1 c 0 -12.273 9.985 -22.259 22.258 -22.259 c 4.249 0 8.382 1.202 11.949 3.477 c 0.466 0.297 0.603 0.915 0.306 1.381 c -0.296 0.465 -0.915 0.604 -1.38 0.306 C 52.628 9.857 48.868 8.763 45 8.763 c -11.17 0 -20.258 9.088 -20.258 20.259 C 24.742 29.574 24.294 30.022 23.742 30.022 z" style="stroke: none; stroke-width: 1; stroke-dasharray: none; stroke-linecap: butt; stroke-linejoin: miter; stroke-miterlimit: 10; fill: rgb(0,0,0); fill-rule: nonzero; opacity: 1;" transform=" matrix(1 0 0 1 0 0) " stroke-linecap="round" />
	<path d="M 66.259 30.022 c -0.553 0 -1 -0.448 -1 -1 c 0 -4.721 -1.659 -9.316 -4.672 -12.941 c -0.354 -0.425 -0.295 -1.055 0.129 -1.408 c 0.427 -0.354 1.056 -0.294 1.408 0.13 c 3.312 3.983 5.135 9.033 5.135 14.22 C 67.259 29.574 66.812 30.022 66.259 30.022 z" style="stroke: none; stroke-width: 1; stroke-dasharray: none; stroke-linecap: butt; stroke-linejoin: miter; stroke-miterlimit: 10; fill: rgb(0,0,0); fill-rule: nonzero; opacity: 1;" transform=" matrix(1 0 0 1 0 0) " stroke-linecap="round" />
	<path d="M 72.599 30.022 c -0.553 0 -1 -0.448 -1 -1 C 71.599 14.355 59.667 2.423 45 2.423 c -14.667 0 -26.598 11.932 -26.598 26.599 c 0 0.552 -0.448 1 -1 1 s -1 -0.448 -1 -1 c 0 -15.77 12.829 -28.599 28.598 -28.599 c 15.77 0 28.599 12.829 28.599 28.599 C 73.599 29.574 73.151 30.022 72.599 30.022 z" style="stroke: none; stroke-width: 1; stroke-dasharray: none; stroke-linecap: butt; stroke-linejoin: miter; stroke-miterlimit: 10; fill: rgb(0,0,0); fill-rule: nonzero; opacity: 1;" transform=" matrix(1 0 0 1 0 0) " stroke-linecap="round" />
	<path d="M 34.794 30.022 c -0.552 0 -1 -0.448 -1 -1 c 0 -6.525 5.309 -11.834 11.833 -11.834 c 2.943 0 5.765 1.088 7.943 3.063 c 0.409 0.371 0.439 1.003 0.069 1.412 c -0.371 0.409 -1.005 0.44 -1.413 0.069 c -1.81 -1.641 -4.153 -2.544 -6.6 -2.544 c -5.422 0 -9.833 4.412 -9.833 9.834 C 35.794 29.574 35.347 30.022 34.794 30.022 z" style="stroke: none; stroke-width: 1; stroke-dasharray: none; stroke-linecap: butt; stroke-linejoin: miter; stroke-miterlimit: 10; fill: rgb(0,0,0); fill-rule: nonzero; opacity: 1;" transform=" matrix(1 0 0 1 0 0) " stroke-linecap="round" />
	<path d="M 45.628 19.188 c -0.552 0 -1 -0.448 -1 -1 v -4.155 c 0 -0.552 0.448 -1 1 -1 c 0.553 0 1 0.448 1 1 v 4.155 C 46.628 18.74 46.181 19.188 45.628 19.188 z" style="stroke: none; stroke-width: 1; stroke-dasharray: none; stroke-linecap: butt; stroke-linejoin: miter; stroke-miterlimit: 10; fill: rgb(0,0,0); fill-rule: nonzero; opacity: 1;" transform=" matrix(1 0 0 1 0 0) " stroke-linecap="round" />
</g>
</g>
</svg>